<svg width="153.17" height="153.17" viewBox="0 0 153.174 153.174" xmlns="http://www.w3.org/2000/svg">
  <circle cx="76.587" cy="76.587" r="75.837" fill="#fff" stroke="#000" stroke-width="1.5"/>
  <path d="m76.587 0.746c-41.775 2e-6 -75.658 33.779-75.833 75.514 46.413 14.313 105.93 12.758 151.64-1.6247-1.0331-40.983-34.58-73.889-75.812-73.889z" fill="#f00" stroke="#000" stroke-width="1.5"/>
  <path d="m152.11 70.187c-45.86 15.743-103.89 16.506-151.12 1.6164a75.837 75.837 0 0 0 -0.23926 4.778 75.837 75.837 0 0 0 0.22841 5.6813c47.855 14.341 104.59 13.637 151.24-1.5679a75.837 75.837 0 0 0 0.20567 -4.1134 75.837 75.837 0 0 0 -0.31523 -6.3944z"/>
  <circle cx="77.417" cy="85.227" r="19.632" fill="#fff" stroke="#000" stroke-width="10"/>
</svg>
