<svg width="194.22" height="112.75" viewBox="0 0 194.21817 112.74801" xmlns="http://www.w3.org/2000/svg">
  <path d="m23.59 0.0011558c-0.71789 0.0087-1.4173 0.10929-2.0707 0.31419 1.6715 0.99902 3.0128 1.7469 3.8086 2.6727 0.48885 0.56874 0.80403 1.104 1.0521 1.712-5.5306 3.3854-7.5657 7.0921-8.1447 9.9844-1.6227 0.95508-3.1272 2.0306-4.4586 3.2132-1.4976-0.76156-2.6603-1.7634-3.4727-3.4701-1.5203-3.1941-1.1547-4.9311-0.4253-6.7562-2.4909 0.61365-5.8349 6.8037-4.2049 11.528 0.84686 2.4544 1.9285 3.825 3.2675 4.8271-3.6781 6.5953-3.563 12.596-4.1718 15.316-1.3652 6.0992-2.5437 8.3844-3.3734 10.933-0.20266 0.62243-1.299 2.0968-1.3839 2.6918-0.0904 0.63355 0.35912 1.4115 0.41186 2.0071 0.0527 0.59563-0.0428 1.2899 0.63924 2.1342 1.5239 1.8864 4.4402 3.402 5.6612 4.1109 0.89465 0.51938 1.5477-0.0646 1.5477-0.0646l0.0191-0.0295c0.9391 0.41068 2.0858 0.60959 3.5729 0.29404 4.5835-0.97259 5.723-7.1425 6.4306-8.1401 0.31656-0.44626 1.5924-1.2751 3.4473-2.8593 0.8019 1.3419 1.7233 2.7388 2.7285 4.162-0.88628 1.0964-1.286 2.6688-1.3234 4.1191-0.10479 4.0591 0.56745 14.481 2.543 18.709 0.86382 1.8489 2.3946 3.0748 4.2209 3.8732 0.47512 3.9232 2.0826 8.1398 4.671 12.81 1.0001 1.8043 2.5386 2.6838 4.0091 2.806 3.5543 0.29548 7.6037 0.54058 9.3545-0.53433 1.1807 1.8596 2.6072 3.663 4.6101 4.8777 0 0 1.5666 0.13845 1.9926-0.0863 0.52692-0.27794 0.6811-1.8955 0.6811-1.8955l0.23978-10.544s0.06179-0.80684-0.87023-0.89401l-5.7779-0.80924-0.78445-0.73794c-1.6971-0.15163-3.9211-0.1176-6.0539 1.0216-0.45351-1.4043-1.0313-2.8916-1.8728-4.4163 2.9601 0.45937 6.2579 1.3696 6.7634 0.33796 0.86354 1.473 2.3817 2.1327 3.4794 2.3316 0.43624 0.0791 1.3668-0.58384 1.5679-0.73381 0.24077-0.17957 0.17725-0.67024 0.17725-0.67024l-0.3328-2.173-0.11162-3.6065c0.0062-0.39138-0.09892-0.62925-0.38912-0.80408-0.51394-0.30964-1.4565-0.8787-2.7683-0.72244-1.2301-1.3128-2.2489-1.2094-3.6298-1.7978 0.6179-0.26051 1.2659-0.59338 1.9255-0.98444a29.132 19.778 0 0 0 16.856 3.6644 29.132 19.778 0 0 0 16.196 -3.3564c2.5785 4.2651 5.9955 7.8388 8.9653 10.2 3.7826 3.0073 10.188 3.6961 11.017 5.409 0.82888 1.7129-1.0294 7.5047-0.50023 10.222-1.2874 0.95311-4.0536 6.5887-0.52761 6.2208l10.599-4.2804c0.79526-1.6199 0.0225-3.1547-5e-3 -4.8075-0.0285-1.7157 1.5755-6.441 1.4614-9.8666-0.13275-3.984-3.0987-6.4101-3.3905-8.8387-0.13346-1.1109-0.0987-3.202-0.0352-5.9356 0.1441-8e-3 0.2847-0.0181 0.42634-0.0279 1.4186 2.8046 2.7514 5.1989 3.8892 6.6368 1.7805 2.2503 11.321 9.8779 12.142 14.221 0.8881 4.6945-1.0495 6.9353-2.4567 10.583l0.047 1.1808c-1.5812 0.85556-6.9418 6.1408-3.8742 6.4254l9.355 1.0397c1.1539 0 2.865-0.86198 2.9295-1.8428l-0.24133-1.9405c0.69631-0.76472 0.61889-2.544 0.50281-3.6117 0.83191-2.8628 4.5673-8.8072 4.6519-13.11 0.0964-4.9015-7.1838-11.828-6.6146-20.316 0.67709-10.096 5.6978-15.597 1.9844-29.482-1.7539-6.558-7.5094-16.308-19.404-18.427-4.1114-0.7322-15.539-1.1563-19.243-2.7606-2.7877-1.2073-8.3714-7.5542-19.4-11.099-3.5698-1.1473-7.716-1.2954-11.159-1.5208 0.65144-0.53829 1.2823-1.0951 1.8826-1.6748-3.876-0.22417-9.7722-1.7192-14.045-3.5 1.2896-0.79796 2.5634-1.6374 3.8168-2.529-6.1745-0.40307-14.891-0.15906-21.289 1.2563-0.32728 0.13832-0.64355 0.27851-0.9555 0.4191-0.68668-0.6108-1.4081-1.1224-2.0722-1.4593-1.4633-0.7423-3.132-1.1684-4.7113-1.1493z" fill="currentColor"/>
  <path d="m179.02 33.798c-0.17015 2.8175-0.9204 2.2316-0.47484 4.0103 2.1311-0.87817 4.6237-3.0589 6.0972-4.8135 0.64195 1.8707-0.22265 1.885 0.85045 4.3467 2.14-0.91892 3.0246-0.0396 8.221-3.2128-0.32599 2.5642-3.0596 8.0709-8.2659 9.4356 0.95258 0.13935 1.0241 0.79924 3.9664 0.53356-2.3682 1.772-4.154 2.5698-8.1737 1.9844 1.197 0.33557 0.79186 0.74761 2.5041 0.75595-8.645 5.0601-19.631-2.5638-13.098-6.557 5.7026-3.4857 3.9175-3.6348 8.3736-6.4832z" fill="currentColor"/>
  <path d="m181.11 67.218c-1.1577-0.86345-0.63005-1.1161-1.3735-1.9705 2.8031 2.6019 6.4373 1.9161 8.9469 0.53593-0.77696 0.0429-1.0837-0.0497-1.4981-0.64426 3.2324-0.64833 6.2855-4.559 7.0341-5.9508-3.6583 0.81768-7.5146 0.26011-8.599 0.90105-0.47385-1.0564 0.28544-2.3139 0.97835-3.1102-2.7812 0.0536-5.1134 1.7255-5.9369 2.601-0.59403-2.0183 0.33573-1.698 0.39755-3.2486-2.7282 2.0385-3.0256 0.85038-5.7001 3.1792-5.2213 4.5465 2.5306 8.135 5.7507 7.7072z" fill="currentColor"/>
  <path d="m168.12 70.938c0.17085-2.6908 2.938-3.822 4.8108-6.3476 0.15783 1.073-0.36257 1.7514 0.0668 3.0736 2.2056-2.1068 4.9553-3.2318 7.9179-3.7752-1.4286 2.4898-2.7905 2.721-3.4411 4.4434 2.3633-0.70412 3.3156 0.81985 9.6551-1.2361-0.90735 2.376-4.7193 5.1382-8.9535 5.5124 0.3793 1.0518 1.4366 1.3271 1.7038 2.3052-1.6263-0.99542-2.0694-0.68207-3.5079-0.80181 0.97281 0.30749 1.1544 0.5458 1.6704 1.0357-5.604 0.13831-10.084-1.6685-9.9224-4.2095z" fill="currentColor"/>
  <g fill="none" stroke="currentColor">
    <path d="m115.41 29.586c13.197-7.8321 22.455 10.425 27.995 21.062 10.224 19.632 19.619 22.456 29.031 20.248"/>
    <path d="m176.66 63.056c-14.525 0.046-23.594-8.4878-31.372-16.725-6.3545-6.7303-16.795-21.71-29.879-16.737"/>
    <path d="m173.07 41.796c-8.3899 4.7042-18.639 8.3794-29.955 4.0632-12.951-4.9397-15.187-19.949-27.705-16.265"/>
    <g stroke-linecap="round" stroke-linejoin="round" stroke-width=".75">
      <path d="m133.9 106.57 14.883-0.37797"/>
      <path d="m133.15 109.97 17.954-0.14174"/>
      <path d="m150.39 101.61c0.2315-1.5207 3.4739-2.788 5.3862-0.94494 1.2368 1.192 0.45717 2.9098-0.56696 4.016 1.5762-0.71942 5.1228 0.99787 4.7247 3.449-0.34518 2.1255-3.2022 2.4077-5.5752 1.7009"/>
      <path d="m147.23 94.286c-0.52069-3.1433 1.8163-6.5404 4.9609-6.4728 2.2159 0.0476 3.2402 3.2576 3.0238 6.0949 2.1022-4.3355 4.8216-4.5222 7.7013-2.6931 4.1309 2.6239 1.7431 4.8101 0.8977 5.9059 2.9168-1.0073 7.5383 2.2005 8.1265 5.2444 0.90346 4.6753-2.0097 7.2694-5.8586 7.654"/>
    </g>
  </g>
</svg>
