<svg width="188.81" height="178.14" viewBox="0 0 188.80927 178.13512" xmlns="http://www.w3.org/2000/svg">
  <defs>
    <linearGradient id="grad" gradientTransform="rotate(88)">
      <stop stop-color="#fff" offset=".05"/>
      <stop stop-color="#d8d8d8" offset=".13"/>
    </linearGradient>
  </defs>
  <g stroke="#000">
    <path d="m111.95 165.24c0.54239 4.2673 5.2918 4.9771 8.9632 4.3807 5.0632-0.82239 6.316-3.4456 6.4112-5.7921 3.7628 3.8349 10.331 5.2638 15.817 3.3099 5.6293-2.005 8.7062-5.4736 9.3368-10.002 3.8859 1.6906 10.627 2.9173 18.95-4.6232 8.5185-7.7181 6.4598-15.925 2.921-19.158 11.155-2.5748 15.26-12.555 13.602-23.509-0.9268-6.1217-2.4562-11.4-6.3945-12.735 4.6274-4.5077 6.4012-11.68 4.3818-21.061-2.7038-12.561-11.052-15.181-16.761-14.829 2.0658-2.7122 2.4489-7.0897 1.222-11.782-2.4766-9.473-8.1622-13.535-10.174-14.122-3.8566-1.1262-7.1248 1.263-7.9855 2.0336 1.7549-4.9505 0.95829-11.351-9.4222-18.865-4.4154-3.196-11.838-2.0712-15.43 0.26583-0.24698-4.1923-1.8512-9.5326-8.2601-13.177-5.4809-2.724-12.084-0.71818-13.88 2.8797-1.669-3.841-6.3671-8.898-16.852-7.801-10.776 1.1274-14.591 9.3029-15.242 13.306-5.7933-1.6704-14.159-1.5658-20.692 2.1076-8.8315 4.966-10.028 13.303-9.4692 19.716-5.9408-0.30779-12.612 2.4179-18.058 8.0628-4.6496 4.8203-7.053 13.826-3.6856 21.162-3.4417-0.677-9.224 0.40801-13.159 5.4301-4.0164 5.1254-3.0642 12.424-1.511 16.42-4.5805 4.91-8.6192 12.284-4.136 20.579 4.2798 7.9183 7.6708 9.0224 11.223 9.2114-2.5721 3.5791-5.2104 8.5513-5.6882 13.314-0.40606 4.0471 1.5114 13.105 6.6932 19.375 7.5078 9.0845 15.721 8.8974 20.278 5.2904-0.64422 4.5877 1.0348 8.3964 5.726 10.951 3.3989 1.8512 7.8954 1.0503 9.9451-0.83496 1.8667 2.3722 4.9275 3.7557 7.8734 4.2669 2.7634 0.47948 5.5062 0.24366 7.6149-0.84315 1.271 1.4251 3.4185 2.2454 5.8017 1.9366 2.5679-0.33269 4.0256-1.7218 4.5102-2.9556" fill="#fff" stroke-miterlimit="10"/>
    <path d="m105.65 144.77c-4.0686 4.1768-6.2052 8.4132-8.1517 14.021-1.0395 2.9948-3.0148 8.3991-3.4237 11.331-0.1276 0.91497 0.0813 1.892 0.48911 2.364 0.81452 0.9427 3.6643 2.3898 5.4954 2.9725 2.3577 0.7502 8.7322 1.2935 11.623 0.9811 1.8289-0.19763 3.13-1.0586 3.8721-1.9564 1.6007-1.9368 3.0907-6.5664 3.546-9.4968 0.34486-2.2196-0.10203-4.786 1.2228-7.7441 1.6826-3.757 3.9405-5.7051 6.073-7.9072z" fill="#584f4f" stroke-linejoin="round"/>
    <path d="m75.011 149.69c0.04333 8.0698 0.14639 16.105 1.1726 23.476 0.19806 1.4225 1.2699 3.6524 3.1348 4.0711 4.3105 0.96775 11.204-0.0326 13.221-1.1051 1.6878-0.89721 3.0813-4.7816 3.5202-6.7366 0.74589-3.322 0.47917-8.0631-0.37961-12.037-0.68571-3.1731-2.4977-7.8632-4.7941-12.645z" fill="#584f4f" stroke-linejoin="round"/>
    <path d="m139.68 87.22c2.3312 3.6877 5.8496 7.4323 11.709 8.5354 4.8425 0.91171 11.487 0.57031 14.003-1.6065 1.0811-0.93548 0.91965-4.6174-0.3912-6.3304-6.453-4.4278-9.3146-7.4989-22.493-6.6851z" fill="#fdb7d6"/>
    <path d="m30.017 93.129c1.3552 2.1509 5.3574 3.3681 12.278 1.7292 6.3356-1.5004 9.8779-4.4546 13.027-7.2628l-0.63405-6.6864c-9.6669-0.10892-19.461 3.1975-24.671 12.22z" fill="#fdb7d6"/>
  </g>
  <path d="m71.75 53.875c-4.5889 9.4892-4.6782 22.469-4.5023 28.756 0.47692 17.046 20.017 28.716 31.587 28.535 11.201-0.17556 30.248-11.588 30.485-26.836 0.11225-7.2325 0.37918-19.523-3.157-28.264z" fill="#584f4f" stroke="#000"/>
  <path d="m78.494 70.274c-1.4749 1.2348-3.1933 2.8924-3.2567 6.0524-0.08923 4.4473 2.8783 8.1174 8.5309 8.2715 3.1849 0.0868 4.2685-0.52178 5.8506-2.1039 1.6173-1.6173 2.3458-3.8088 2.4209-5.7065-0.55417-2.225-7.6258-7.3212-13.546-6.5135z" fill="#f2f485"/>
  <path d="m80.092 70.261c-1.9312 1.4802-2.8639 2.7537-3.2607 4.9725-0.36871 2.0618 0.06193 6.5394 4.8095 7.7034 4.725 1.1584 7.7466-0.95903 8.3963-2.9346 0.33368-1.0147 0.76091-2.837 0.57062-5.2579-2.6608-2.2868-6.4131-4.7951-10.516-4.4834z"/>
  <path d="m98.614 85.876c-1.098-0.85394-2.8765-0.93325-3.5196 0.50888-0.68265 1.5308 1.7581 3.2714 3.7953 4.5586 0.9971-0.61797 4.0412-3.0438 3.237-4.5586-0.82061-1.5456-2.5842-1.1515-3.5126-0.50889z" fill="#fdb7d6" stroke="#000" stroke-linejoin="round" stroke-width=".8"/>
  <path d="m90.344 95.107c1.1203 0.794 2.3614 1.5152 4.5073 1.3977 1.6201-0.0887 3.3515-1.3236 3.7856-2.2994 0.546 1.5709 1.7057 2.5096 3.2348 2.6542 2.2963 0.21728 4.3184-0.77937 5.6407-2.3212-1.9585 1.1898-3.915 1.5302-5.5333 1.4006-1.9342-0.1548-2.7736-1.6069-3.0211-3.4595-1.0051 1.9587-2.1329 2.6379-3.7041 3.0927-1.3401 0.38785-3.427-0.0645-4.91-0.46522z"/>
  <path d="m82.13 78.657c-1.7085-0.73797-3.5626-2.2632-2.7716-3.4237 0.49932-0.7326 2.2505-0.72851 4.7688 0.40759 2.1859 0.98614 3.1686 2.0534 2.6901 3.1792-0.41679 0.98055-2.7496 0.6739-4.6872-0.16303z" fill="#fff"/>
  <path d="m72.533 73.757c0.89714-2.196 3.8631-3.9147 6.2212-4.038 5.9935-0.31332 9.5816 2.6687 10.731 3.6098 2.0133 1.6491 3.131 2.8522 2.9981 5.6185-0.33899-1.7478-1.3648-3.627-3.1253-4.859-1.9659-1.3756-5.4959-3.4701-10.08-3.4966-2.0824-0.012-5.3615 1.4365-6.7449 3.1652z"/>
  <path d="m73.854 79.151c0.5186 1.3595 2.0932 3.0131 3.4008 3.8043 4.2664 2.5816 6.7848 2.2556 9.3667 1.9022 3.0553-0.41827 4.4054-1.2143 5.7065-2.248-1.7885 0.73414-3.3533 1.0916-5.4183 1.3834-3.0381 0.42923-6.5858-0.0256-9.482-1.931-1.3906-0.91484-2.433-1.7021-3.5738-2.9109z"/>
  <path d="m122.12 71.147c1.1489 1.4793 1.5222 3.0962 1.5041 5.3187-0.0362 4.4481-2.8376 8.4435-8.4902 8.5976-3.185 0.0868-5.0502-1.0919-6.4958-2.7997-1.5885-1.8767-1.2907-5.7035-0.44441-7.6061 2.4275-2.1962 9.3032-5.4422 13.926-3.5105z" fill="#f2f485"/>
  <path d="m120.39 70.779c1.4701 1.6819 1.8552 2.4655 2.0502 4.7708 0.17657 2.0871-0.65167 7.1533-6.02 8.251-4.6368 0.94813-6.8655-1.7285-7.3876-3.7416-0.42015-1.62 0.0172-5.4885 1.4468-7.0736 3.0931-2.0274 5.8079-2.5183 9.9106-2.2066z"/>
  <path d="m116.14 79.115c1.7514-0.62947 3.6974-2.0355 2.9807-3.2433-0.45244-0.76245-2.2004-0.8681-4.785 0.10797-2.2434 0.84723-3.291 1.8508-2.884 3.0044 0.35452 1.0047 2.702 0.84488 4.6883 0.13101z" fill="#fff"/>
  <path d="m124.99 73.04c-0.89714-1.5846-3.3332-2.8142-5.6914-2.9375-5.9935-0.31332-9.8034 2.7627-10.853 3.8136-1.8911 1.8936-3.0087 3.1376-2.8758 5.9038 0.33898-1.7478 1.648-3.7444 3.2048-5.0578 1.8339-1.5473 5.4741-3.7027 10.058-3.7292 2.0824-0.012 4.448 0.80822 6.1575 2.0071z"/>
  <path d="m122.27 82.263c-0.61179 1.0971-1.638 1.7957-3.0438 2.2944-3.6631 1.2993-5.798 0.90152-7.8545 0.37446-2.4335-0.62368-3.3168-1.3847-4.286-2.2492 1.3861 0.70755 2.5955 1.029 4.2364 1.4687 1.9623 0.5258 5.7875 0.34051 7.8058-0.26687 1.236-0.37198 2.1264-0.89898 3.1421-1.6215z"/>
  <path d="m51.921 68.055c-0.0033 4.276-2.0925 7.9053-5.303 9.4532-5.3886 2.5981-8.6227 1.0848-11.989 3.1126-4.3306 2.6084-6.878 5.5814-7.1475 9.799-0.13729 2.148 0.6705 4.7285 2.248 4.8419 1.3822 0.0993 3.5181-1.4309 5.0148-3.1126 1.8525-2.0816 4.2378-5.4888 6.6864-6.3406 2.2611-0.78655 6.428-0.20571 10.03-0.11528 2.8128 0.0706 5.0459-1.5511 6.8017-2.6515l0.92226-12.681z" fill="#584f4f" stroke="#000"/>
  <path d="m145.02 65.125c1.1788 2.7257 2.3889 5.5502 5.5432 7.4996 3.1166 1.9261 8.202 1.2718 11.657 3.1792 3.9624 2.1875 6.7413 8.6408 7.0105 10.679 0.39274 2.9731-0.5246 6.9528-2.364 7.255-2.1966 0.36086-4.6682-2.8026-6.1953-4.8095-1.3763-1.8088-4.9772-5.0859-7.7441-5.3801-4.6289-0.49223-5.9853 1.7279-8.6408 2.201-2.6719 0.47602-5.5745-1.7177-7.4996-3.6683z" fill="#584f4f" stroke="#000"/>
  <g fill="#fff">
    <path d="m68.919 62.143c6.0066 3.2167 13.649-0.98844 16.532-4.4298 4.7107 4.2357 10.456 6.1016 15.941 6.2549 6.4373 0.17987 11.634-1.244 16.14-5.4756 2.4021 4.5744 5.5818 7.4825 10.328 7.0337 6.1011-1.5537 3.4587-12.181-0.41025-14.291l-56.661-2.1405c-3.1017 3.8392-2.3452 8.4728-1.8694 13.049z"/>
    <path d="m115.37 109.83c-1.9935-2.7086-7.3826-3.8932-11.861 0.63137-5.5992-5.0902-11.999-3.9571-15.451-2.3312-2.3596-2.621-3.3756-5.3408-9.4049-4.1325l1.397 13.761 32.423 1.1332z"/>
    <path d="m96.925 137.84c0.89186 5.5584-0.43069 8.6673-3.8313 11.249-2.8824 2.1886-5.5786 1.1661-7.255-0.4891-0.95594 6.8018-9.8061 8.4114-14.347 6.1138-4.449-2.5526-0.46347-12.299 2.4565-16.737 3.3099-5.0308 21.862-5.0525 22.977-0.13667z"/>
    <path d="m100.05 140.86c-2.6426 10.914 5.085 11.046 7.4069 9.3379 2.7782 5.4111 9.4882 5.0457 12.786 2.2361 2.2397 2.3389 8.0532 1.6981 12.08-1.9156-7.3901-8.9922-17.368-13.549-32.272-9.6584z"/>
  </g>
  <path d="m97.015 137.64c-0.0761 3.433-0.0925 4.5217-0.86604 6.7657-0.60698 1.691-1.7092 3.0278-3.3574 4.2793-1.3515 1.0262-2.5876 1.2707-3.7012 1.1016-1.1136-0.16914-2.1209-0.77921-2.9004-1.5488l-0.70703-0.69921-0.13867 0.98632c-0.44913 3.1957-2.7189 5.1411-5.4922 6.0645-2.7733 0.92336-6.023 0.74037-8.1348-0.32813l-0.45117 0.89258c2.4292 1.2291 5.8764 1.3922 8.9023 0.38477 2.7941-0.93029 5.176-2.9832 5.9355-6.123 0.80583 0.64798 1.7354 1.1922 2.8359 1.3594 1.3743 0.20875 2.9262-0.1306 4.457-1.293 1.7524-1.3306 3.0119-2.8397 3.6934-4.7383 0.68148-1.8986 0.72485-4.9635-0.0754-7.1036z"/>
  <path d="m72.297 151.06c0.17247 1.2554 0.30994 2.4363-1.1179 4.2438-0.81182 1.0277-2.8018 1.6824-4.8192 1.0303 1.4361-0.19225 3.2633-0.78936 4.0061-1.7004 0.76837-0.94246 1.4242-1.9214 1.931-3.5738z"/>
  <path d="m95.556 136.3c3.3553-1.2688 4.6184-2.6605 4.9572-6.8593 0.98462 1.9116 0.6858 4.961-2.5939 6.8881-1.0697 0.62853-1.6912 0.58681-2.3633-0.0288z"/>
  <path d="m100.54 139.73c-0.54062 2.1484-1.23 6.8686 0.43231 8.992 1.9237 2.4575 4.6636 2.2073 6.2611 1.1036l0.28965 0.731c-1.4143 1.2835-4.7672 1.6835-6.7813-0.53769-3.3098-3.6501-1.4486-8.8259-0.20175-10.289z"/>
  <path d="m107.2 145.29c-0.0627 1.5432-0.29209 6.2078 4.8131 8.1851 4.9108 1.902 9.3342-2.2899 11.788-4.5248-1.1595 2.2059-5.5957 7.7265-12.162 5.4471-6.4235-2.2297-5.2715-7.9706-4.4384-9.1073z"/>
  <path d="m132.71 150.14c-1.3314 2.2885-4.2711 3.8637-7.2052 4.0925-2.8315 0.22087-4.486-0.30102-5.4759-1.2681l0.69169-0.72051c1.0578 1.0955 2.7562 1.1535 4.5825 1.0375 2.8409-0.18039 5.0798-1.7369 7.4069-3.1414z"/>
  <path d="m81.444 103.26c-1.1273 0.0253-2.7365-0.15874-3.5678 1.1352 1.8855-0.43789 4.6016-0.18462 6.2572 0.73391 1.4533 0.80627 2.6639 2.1002 3.6153 3.4043l0.83969-0.54306c-1.0086-1.3921-2.3159-2.8041-3.9628-3.7323-0.94803-0.53437-2.0119-1.0243-3.1816-0.99804z"/>
  <path d="m111.06 106.95c-0.78585-0.0522-1.6769 0.0674-2.668 0.42578-2.3256 0.84103-3.8628 1.7084-5.1002 2.6862l0.72369 0.65213c1.1172-0.89846 2.4759-1.5886 4.7163-2.3989 1.759-0.63616 2.9727-0.50122 3.8577-0.16055 1.1488 0.4422 1.9483 1.0148 2.7749 1.6763-0.34245-0.8459-1.1282-1.7166-2.2673-2.3166-0.70066-0.30425-1.4147-0.52315-2.0371-0.56446z"/>
  <path d="m70.033 35.559c-0.61054-3.0018-0.55041-5.0896 1.5739-6.9252 1.9263-1.6646 3.7662-0.70076 5.0365 0.31478-0.18446-4.3157 1.4177-6.3385 3.5256-7.6807 3.1625-2.0138 7.9387 0.52839 11.206 4.0292-0.82212-9.0943 4.7762-11.481 9.3176-11.332 2.4754 0.08135 4.749 1.4101 5.7967 2.5211 1.8612 1.9737 1.2106 4.4819 0.62492 6.7965 1.7097-2.0442 6.1307-5.1312 11.017-1.2591 3.2502 2.5753 3.9143 4.7689 3.7774 7.0512 1.6295-1.8023 3.7023-2.1616 5.3513-0.75548 2.1501 1.8335 2.0996 4.1949 1.448 6.9252" fill="none" stroke="#000" stroke-miterlimit="10"/>
  <path d="m131.86 40.65c-0.5542-2e-3 -1.0975 0.0768-1.5996 0.22265l0.27929 0.96094c0.81605-0.23699 1.8022-0.25612 2.6641 0.0332 0.86187 0.28933 1.6014 0.85885 2.0352 1.8652 0.64609 1.4991 0.59913 2.8258 0.21875 4.0488-0.27647 1.3714-1.0817 2.491-1.8441 3.7737 1.5656-0.72669 2.6359-2.9707 2.7991-3.4768 0.43679-1.4044 0.48466-3.0241-0.25586-4.7422-0.54669-1.2684-1.548-2.0532-2.6348-2.418-0.54336-0.1824-1.1079-0.26535-1.6621-0.26758z"/>
  <path d="m85.48 57.958c-1.8452 1.9212-4.393 3.5226-7.835 4.7188-3.1097 1.0808-6.5589 0.6913-9.2596-0.80131" fill="none" stroke="#000"/>
  <path d="m67.521 55.249c2.5837 2.3962 3.0387 7.6327 3.001 11.524-0.0419 4.3263-0.90956 7.3068-2.3339 9.5082 2.2988 2.4252 4.3609 5.506 5.094 10.525 0.67667 4.0882 0.1774 7.382-0.80037 9.5266 1.495 1.3108 2.9994 4.689 3.1153 8.1913 0.119 3.597 0.46143 7.0072-2.8491 10.061-0.68757-2.5097-2.0243-5.264-4.2648-6.268 0.09887 1.1016 0.03692 2.2698-0.02373 3.0425-0.19058 2.4279-1.0061 3.6201-2.2035 4.5958-2.2087-1.7551-5.24-2.9898-6.7993-5.6661-1.866-3.2026-2.4011-6.9452-0.9645-10.747-2.3928-2.3881-3.7623-5.0009-4.4414-9.2639-1.1133-6.9892 0.03188-9.7097 1.8381-12.63-1.8176-1.5517-3.4996-3.3644-4.5981-5.6222-2.1041-4.3242-1.4227-9.9948-0.44364-16.521 4.5522-3.1241 12.797-3.8516 16.674-0.2562z" fill="url(#grad)"/>
  <path d="m117.53 58.492c1.2716 2.4866 2.9555 4.2684 4.2736 5.164 2.1068 1.4314 3.5748 2.0304 6.0543 1.8697" fill="none" stroke="#000"/>
  <path d="m82.893 53.535c-0.36327 3.3864 4.8765 6.686 5.6733 7.1751 3.8349 2.3539 8.5494 3.6027 13.194 3.7136 5.239 0.12511 9.2088-0.8571 12.219-2.5782 2.6618-1.522 4.6673-3.7164 5.8843-6.1708-1.8098 1.7423-4.5326 4.3584-6.8181 5.5807-2.7677 1.4802-6.416 2.2839-11.26 2.1682-4.594-0.10971-9.2378-1.3923-12.953-3.74-2.4987-1.5788-4.5776-3.6393-5.9393-6.1487z"/>
  <path d="m68.573 38.719c-2.1354-0.22997-4.3821 0.46043-5.5293 2.7207-0.68981 1.3592-0.77905 3.0212-0.58789 4.5996 0.27701 0.84511 0.60263 3.3568 1.8881 4.3695-0.44851-1.5203-0.77752-3.483-0.89588-4.4906-0.17606-1.4537-0.06634-2.9384 0.48633-4.0274 0.95291-1.8776 2.6601-2.3792 4.5312-2.1777z"/>
  <path d="m67.811 45.228c-0.75937-0.82493-1.5764-3.4632-1.8076-6.3212-0.23126-2.858-0.49936-6.079 0.25214-6.5588 0.7515-0.47983 3.6142 1.7207 5.146 2.963 1.4057 1.1401 4.7253 3.3906 4.7045 4.3476-0.0208 0.95694-1.4906 2.9017-3.4948 4.3106-1.8173 1.2776-4.0409 2.0837-4.8003 1.2588z" fill="#584f4f" stroke="#000"/>
  <path d="m129.41 46.011c0.9289-0.62794 1.668-3.0778 2.7737-5.6723s2.386-5.2189 1.4535-6.1259-4.3495-0.071-6.1936 0.62845c-1.7195 0.65225-4.7494 1.9369-4.9495 3.2736s0.71957 3.4817 2.3455 5.3142c1.4744 1.6616 3.6415 3.2099 4.5704 2.582z" fill="#584f4f" stroke="#000"/>
  <path d="m67.967 55.716c0.49437 1.0693 1.0028 2.0874 1.3506 3.0335 0.82625 2.291 0.73184 5.1493 0.70405 8.0178-0.04289 4.4283-0.94589 7.3583-2.3376 9.4719-0.6148 1.0812-1.164 1.8736-1.771 2.6673 1.1608-0.50959 2.0077-1.2524 2.4817-1.9449 1.566-2.3089 2.5815-5.5069 2.6268-10.185 0.02704-2.792 0.17153-5.7506-0.70774-8.2554-0.62142-1.3178-0.97185-2.2001-2.3469-2.8056z"/>
  <path d="m68.475 75.949-0.71289 0.70117c2.3209 2.358 4.3075 5.3117 5.0254 10.227v6e-3l0.0021 4e-3c0.46736 2.8237 0.27208 5.2319-0.07195 7.1842-0.28445 1.6142-0.86757 2.4606-1.2971 3.5918 1.1267-0.75844 2.0339-2.3426 2.234-3.1816 0.50249-2.1064 0.62284-4.7249 0.12131-7.7565-0.74931-5.1173-2.8854-8.3215-5.3008-10.775z"/>
  <path d="m72.47 96.228c1.5067 1.415 3.0111 4.7932 3.127 8.2955 0.119 3.597 0.46144 7.0072-2.8491 10.061-0.68758-2.5097-2.0243-5.264-4.2736-6.1434" fill="none" stroke="#000"/>
  <path d="m57.979 99.352c-1.4439 3.9579-0.88546 7.8744 1.0449 11.188 1.6676 2.8621 4.7982 4.1191 6.9219 5.8066l0.31445 0.25 0.3125-0.25391c1.2658-1.0315 2.1865-2.4173 2.3848-4.9434 0.0629-0.8013 0.13323-2.0207 0.03142-3.3166-0.1533-1.1746-0.4166-1.5202-1.0111-2.7017-0.01871 0.91233-0.05041 2.0362-0.0052 2.6229 0.11106 1.263 0.05216 2.5099-0.01122 3.3173-0.16718 2.1298-0.8216 3.1109-1.7871 3.9727-2.2298-1.668-4.9119-2.899-6.2852-5.2559-1.8016-3.0922-2.3143-6.6608-0.9707-10.344z"/>
  <path d="m55.686 77.084c-1.0225 1.4891-1.8836 2.9133-2.3105 4.916s-0.42368 4.5554 0.18164 8.3555c0.59682 3.7467 1.6513 6.4012 3.6717 8.5296 0.80716 0.85028 2.058 1.8124 3.6188 2.3708-0.95655-0.89517-2.1639-2.212-2.772-2.8954-1.873-2.105-2.9427-4.4724-3.5303-8.1612-0.59439-3.7315-0.5819-6.1584-0.1914-7.9902 0.3905-1.8319 1.1531-3.0977 2.1563-4.5586z"/>
  <path d="m50.235 57.834c-0.92966 4.1699-1.5902 9.8977 0.60547 14.41 0.9601 1.9731 2.1417 3.8367 3.7863 5.0542 0.93892 0.6951 2.2691 1.3528 3.5427 1.5237-1.1095-0.7429-2.0574-1.5852-2.8439-2.2442-1.4535-1.2314-2.6638-2.8787-3.5847-4.7712-2.0124-4.1358-1.4375-9.6821-0.5293-13.756z"/>
  <path d="m130.15 57.005c-2.5794 2.5021-4.7125 6.2993-4.82 10.097-0.11952 4.2215 0.18307 7.8009 2.5623 10.986-2.1003 2.3088-3.559 4.7349-4.3396 9.656-0.56567 3.5662 0.18243 7.6562 1.0798 9.7488-2.1197 1.6826-5.0766 5.9092-5.3807 9.7301-0.27922 3.5079 0.0266 7.7597 2.9915 10.912 0.78096-2.4488 2.4913-6.8442 4.9455-7.3388-0.14 1.075-0.47532 3.0414-0.36522 3.7881 0.27283 1.8503 1.5881 4.381 2.7487 5.3331 2.331-2.0008 5.0357-3.1319 6.6944-5.7434 1.9849-3.125 3.3312-8.4419 1.6336-13.362 1.9623-2.3303 4.0814-5.3588 4.5747-8.3543 0.78723-4.7804 0.0678-8.8447-1.6288-11.982 2.2784-1.7447 3.9472-5.0068 4.7231-7.3837 1.3056-4.0002 1.2297-11.235-0.41369-16.939-4.3641-4.1319-11.809-2.2478-15.006 0.8526z" fill="url(#grad)"/>
  <path d="m125.44 64.152c-0.46362 1.8531-0.65194 3.7872-0.65442 5.5376-4e-3 2.9876 0.66112 5.6476 2.0772 7.8239 1.0228 1.5719 1.665 1.986 3.2366 2.8348-1.1959-1.2916-1.9212-2.5805-2.4379-3.4031-1.2635-2.0117-1.8935-4.4356-1.8896-7.2556 2e-3 -1.6411 0.27001-3.4312 0.61247-5.1691 0.64286-3.2621 1.1865-3.936 2.3636-5.9434-2.0439 1.5564-2.8954 3.926-3.308 5.5749z"/>
  <path d="m127.55 77.731c-2.579 2.4642-4.098 6.3993-4.5625 10.762-0.25714 2.4147-0.17912 4.7061 0.41345 6.9257 0.68553 2.5677 1.7416 4.312 3.1819 5.4781-0.98261-1.5786-1.9056-4.3853-2.2416-5.759-0.51232-2.0943-0.61681-4.2356-0.37128-6.5413 0.44696-4.1973 1.9271-7.9179 4.2637-10.15z"/>
  <path d="m124.63 97.493c-2.4964 1.9513-4.9823 6.0221-5.3103 9.2357-0.35732 3.5008-0.27437 8.427 2.9211 11.407 0.78097-2.4488 2.3787-6.8476 4.9455-7.3388" fill="none" stroke="#000" stroke-width=".98764"/>
  <path d="m138.37 100.66-0.93751 0.30859c1.5989 4.8594 0.40623 9.6298-1.4512 12.676-1.642 2.6928-4.2906 4.0355-6.3086 5.5957-0.45539-0.44657-0.98385-1.0876-1.4199-1.9746-0.50158-1.0202-0.87394-2.2126-0.91992-3.3027-0.17191-2.2487-0.0638-2.8655 0.78596-4.7142-2.0318 1.2883-1.8328 3.367-1.7723 4.7552 0.0539 1.2789 0.46988 2.5793 1.0195 3.6973 0.54964 1.118 1.222 2.0478 1.8945 2.5996l0.31445 0.25976 0.3125-0.25976c1.8753-1.552 5.01-2.9815 6.9375-6.1426 1.9974-3.2756 3.2487-8.3197 1.5449-13.498z"/>
  <path d="m141.28 80.248-0.875 0.45703c1.6262 3.12 2.6204 7.1879 1.2793 12.783-0.44618 1.8616-1.5263 3.7029-2.9676 5.5936-1.1651 1.5284-1.845 2.3893-2.9896 3.416 1.5636-0.7028 2.998-1.8455 3.7161-2.7368 1.5752-1.9554 2.703-3.9684 3.2001-6.0423 1.3927-5.8107 0.35113-10.181-1.3633-13.471z"/>
  <path d="m146.04 57.242-0.95703 0.24219c1.6708 6.5878 0.7302 13.871-0.46289 16.947-0.692 1.7842-1.6439 3.3876-3.1588 5.0568-1.1846 1.3054-1.7013 1.7494-2.6901 2.5591 1.158-0.30847 2.7444-1.222 3.4245-1.9099 1.6795-1.6988 2.6308-3.509 3.3443-5.3486 1.3148-3.3901 2.2338-10.711 0.5-17.547z"/>
  <path d="m95.424 106.3c-3.3677-0.23514-5.7699 0.39048-7.5508 1.4141-0.73425 0.59638-2.7768 2.0709-3.4336 3.9707 0.88827-1.2136 2.3329-2.1846 3.9316-3.1035s3.7852-1.662 6.9844-1.2832c4.7085 0.55756 9.096 3.9261 11.428 6.9551-1.7084-3.4762-5.0459-7.5123-11.359-7.9531z"/>
  <path d="m153.7 66.022c-4.1117 0.93853-7.9619-0.49434-9.456-2.6493-0.89689-1.2936-1.6431-3.1572-1.3676-5.0578-1.1459 0.372-3.0147 0.0263-4.5424-1.4228-1.6431-1.5586-1.8385-4.1738-1.182-5.91l3.709-1.8341 12.065 1.345 5.0541 12.024z" fill="#fff"/>
  <path d="m142.37 59.537c0.0838 1.6223 0.72922 3.0544 1.4688 4.1211 0.97165 1.4015 2.755 2.447 4.9141 2.9255 2.303 0.51046 3.6269 0.21612 4.953-0.56186-2.4746 0.2666-3.7932-0.24099-4.6816-0.43139-1.984-0.4252-3.5826-1.3767-4.3632-2.5026-0.65537-0.94528-1.2206-2.2161-1.293-3.6016-0.0969-1.8534 0.34604-3.0638 1.3132-4.7346-1.7125 1.1624-2.3889 3.2818-2.3112 4.7854z"/>
  <path d="m137.99 57.254c1.6466 1.5619 3.6319 1.9694 4.9375 1.6738l-0.2207-0.97461c-0.86817 0.1965-2.6205-0.0875-4.0293-1.4238-1.5862-1.6155-1.5059-3.4967-1.5124-5.5426-1.3577 2.751-0.73969 4.7455 0.82493 6.2672z"/>
  <path d="m41.983 64.228c3.0825-0.0425 6.3252-0.68242 7.8257-1.8341 1.0969-0.84202 2.0485-1.886 2.0856-3.6436 1.2431 0.21584 3.2783 0.15712 4.5989-0.88059 1.5941-1.2527 1.5989-2.8335 1.2228-4.7688l-5.1356-3.0569-11.902 1.3043-2.201 9.9859z" fill="#fff"/>
  <path d="m51.607 55.493c0.12785 1.5067 0.06121 3.1426-0.3623 4.3256-0.33736 0.94718-0.97338 1.591-1.7402 2.1797-0.43523 0.33409-1.0825 0.64982-1.8758 0.88734-2.2969 0.68771-3.9701 1.0623-6.0941 1.3022 2.0625 0.48979 4.5836 0.25261 6.3035-0.28595 0.90215-0.28251 1.6827-0.65541 2.2757-1.1106 0.83637-0.642 1.6483-1.4463 2.0723-2.6367 0.34428-1.704 0.3119-3.272-0.57911-4.6615z"/>
  <path d="m57.715 53.101c-0.09263 1.0078-0.2305 1.8508-0.36364 2.5452-0.13324 0.68925-0.45104 1.2667-1.168 1.8301-1.1315 0.88916-3.0618 0.98601-4.334 0.87305l-0.08789 0.99609c1.3907 0.12348 3.5295 0.10423 5.0391-1.082 0.87722-0.68934 1.3596-1.5296 1.5332-2.4277 0.15975-1.099-0.15968-1.8286-0.61879-2.7347z"/>
</svg>
