<?xml version="1.0" encoding="UTF-8" standalone="no"?>
<!-- Created with Inkscape (http://www.inkscape.org/) -->

<svg
   xmlns:dc="http://purl.org/dc/elements/1.1/"
   xmlns:cc="http://creativecommons.org/ns#"
   xmlns:rdf="http://www.w3.org/1999/02/22-rdf-syntax-ns#"
   xmlns:svg="http://www.w3.org/2000/svg"
   xmlns="http://www.w3.org/2000/svg"
   xmlns:sodipodi="http://sodipodi.sourceforge.net/DTD/sodipodi-0.dtd"
   xmlns:inkscape="http://www.inkscape.org/namespaces/inkscape"
   width="210mm"
   height="297mm"
   viewBox="0 0 210 297"
   version="1.1"
   id="svg8"
   inkscape:version="0.92.1 r15371"
   sodipodi:docname="Pokeball.svg">
  <defs
     id="defs2" />
  <sodipodi:namedview
     id="base"
     pagecolor="#ffffff"
     bordercolor="#666666"
     borderopacity="1.0"
     inkscape:pageopacity="0.0"
     inkscape:pageshadow="2"
     inkscape:zoom="0.85574254"
     inkscape:cx="497.23414"
     inkscape:cy="611.19208"
     inkscape:document-units="mm"
     inkscape:current-layer="svg8"
     showgrid="false"
     inkscape:window-width="1172"
     inkscape:window-height="761"
     inkscape:window-x="234"
     inkscape:window-y="234"
     inkscape:window-maximized="0" />
  <metadata
     id="metadata5">
    <rdf:RDF>
      <cc:Work
         rdf:about="">
        <dc:format>image/svg+xml</dc:format>
        <dc:type
           rdf:resource="http://purl.org/dc/dcmitype/StillImage" />
        <dc:title />
      </cc:Work>
    </rdf:RDF>
  </metadata>
  <path
     style="opacity:1;vector-effect:none;fill:#ffffff;fill-opacity:1;stroke:none;stroke-width:1.06025648;stroke-linecap:butt;stroke-linejoin:round;stroke-miterlimit:10;stroke-dasharray:none;stroke-dashoffset:0;stroke-opacity:1"
     id="path4484"
     sodipodi:type="arc"
     sodipodi:cx="106.1356"
     sodipodi:cy="153.19482"
     sodipodi:rx="75.5"
     sodipodi:ry="75.5"
     sodipodi:start="0.0031894942"
     sodipodi:end="0.0019920614"
     d="M 181.63521,153.43563 A 75.5,75.5 0 0 1 105.91739,228.69451 75.5,75.5 0 0 1 30.635851,152.99922 75.5,75.5 0 0 1 106.3086,77.695022 75.5,75.5 0 0 1 181.63545,153.34522"
     sodipodi:open="true" />
  <path
     style="opacity:1;vector-effect:none;fill:#ff0000;fill-opacity:1;stroke:none;stroke-width:1.06025648;stroke-linecap:butt;stroke-linejoin:round;stroke-miterlimit:10;stroke-dasharray:none;stroke-dashoffset:0;stroke-opacity:1"
     d="M 106.27106,164.38005 C 77.952531,164.0833 51.034557,158.98222 30.637811,152.61662 30.956505,111.00385 64.886397,77.494907 106.4999,77.695703 c 41.6135,0.200794 75.21845,34.035607 75.13555,75.649517 -23.72268,6.82554 -48.35902,11.59535 -75.36439,11.03483 z"
     id="path4484-8"
     inkscape:connector-curvature="0"
     sodipodi:nodetypes="ccscc" />
  <path
     style="color:#000000;font-style:normal;font-variant:normal;font-weight:normal;font-stretch:normal;font-size:medium;line-height:normal;font-family:sans-serif;font-variant-ligatures:normal;font-variant-position:normal;font-variant-caps:normal;font-variant-numeric:normal;font-variant-alternates:normal;font-feature-settings:normal;text-indent:0;text-align:start;text-decoration:none;text-decoration-line:none;text-decoration-style:solid;text-decoration-color:#000000;letter-spacing:normal;word-spacing:normal;text-transform:none;writing-mode:lr-tb;direction:ltr;text-orientation:mixed;dominant-baseline:auto;baseline-shift:baseline;text-anchor:start;white-space:normal;shape-padding:0;clip-rule:nonzero;display:inline;overflow:visible;visibility:visible;opacity:1;isolation:auto;mix-blend-mode:normal;color-interpolation:sRGB;color-interpolation-filters:linearRGB;solid-color:#000000;solid-opacity:1;vector-effect:none;fill:#000000;fill-opacity:1;fill-rule:nonzero;stroke:none;stroke-width:37.79527664;stroke-linecap:butt;stroke-linejoin:miter;stroke-miterlimit:4;stroke-dasharray:none;stroke-dashoffset:0;stroke-opacity:1;color-rendering:auto;image-rendering:auto;shape-rendering:auto;text-rendering:auto;enable-background:accumulate"
     d="M 401.29492 289.62109 C 241.46355 289.62109 111.83594 419.25651 111.83594 579.08789 C 111.83594 738.91927 241.46355 868.54492 401.29492 868.54492 C 561.1263 868.54492 690.75391 738.91927 690.75391 579.08789 C 690.75391 419.25651 561.1263 289.62109 401.29492 289.62109 z M 401.29492 295.29102 C 550.22231 295.29102 672.29046 409.93612 684.12891 555.80664 C 512.01355 614.17438 295.20967 616.99634 118.04492 561.80273 C 126.97653 413.0908 250.33338 295.29102 401.29492 295.29102 z M 684.60352 595.45312 C 676.12628 744.59808 552.56742 862.87695 401.29492 862.87695 C 252.03913 862.87695 129.75184 747.73345 118.375 601.4043 C 297.77612 654.4725 509.70966 651.82329 684.60352 595.45312 z "
     transform="scale(0.26458333)"
     id="path4525-1" />
  <circle
     style="display:inline;opacity:1;fill:#ffffff;fill-opacity:1;stroke:#000000;stroke-width:10;stroke-miterlimit:4;stroke-dasharray:none;stroke-dashoffset:0;stroke-opacity:1"
     id="path3696-0-4"
     cy="161.85535"
     cx="107.0116"
     r="19.632376" />
</svg>
