<?xml version="1.0" encoding="UTF-8" standalone="no"?>
<!-- Created with Inkscape (http://www.inkscape.org/) -->

<svg
   xmlns:dc="http://purl.org/dc/elements/1.1/"
   xmlns:cc="http://creativecommons.org/ns#"
   xmlns:rdf="http://www.w3.org/1999/02/22-rdf-syntax-ns#"
   xmlns:svg="http://www.w3.org/2000/svg"
   xmlns="http://www.w3.org/2000/svg"
   xmlns:sodipodi="http://sodipodi.sourceforge.net/DTD/sodipodi-0.dtd"
   xmlns:inkscape="http://www.inkscape.org/namespaces/inkscape"
   width="210mm"
   height="297mm"
   viewBox="0 0 210 297"
   version="1.1"
   id="svg8"
   inkscape:version="0.92.1 r15371"
   sodipodi:docname="tauros.svg">
  <defs
     id="defs2" />
  <sodipodi:namedview
     id="base"
     pagecolor="#ffffff"
     bordercolor="#666666"
     borderopacity="1.0"
     inkscape:pageopacity="0.0"
     inkscape:pageshadow="2"
     inkscape:zoom="0.35"
     inkscape:cx="413.11754"
     inkscape:cy="648.61986"
     inkscape:document-units="mm"
     inkscape:current-layer="svg8"
     showgrid="false" />
  <metadata
     id="metadata5">
    <rdf:RDF>
      <cc:Work
         rdf:about="">
        <dc:format>image/svg+xml</dc:format>
        <dc:type
           rdf:resource="http://purl.org/dc/dcmitype/StillImage" />
        <dc:title />
      </cc:Work>
    </rdf:RDF>
  </metadata>
  <path
     style="display:inline;opacity:1;fill:#000000;fill-opacity:1;stroke:none;stroke-width:1;stroke-linecap:butt;stroke-linejoin:miter;stroke-miterlimit:4;stroke-dasharray:none;stroke-opacity:1"
     d="m 31.570683,73.883344 c -0.717891,0.0087 -1.417288,0.109294 -2.070676,0.314192 1.671518,0.999017 3.012823,1.746925 3.808552,2.672705 0.488853,0.568745 0.804029,1.103992 1.052135,1.712042 -5.530647,3.38541 -7.5657,7.092109 -8.144724,9.984401 -1.622698,0.95508 -3.127183,2.030566 -4.458642,3.213243 -1.497625,-0.761558 -2.660295,-1.763352 -3.472656,-3.470074 -1.520329,-3.194121 -1.154726,-4.931077 -0.425297,-6.756175 -2.490866,0.613651 -5.834936,6.803687 -4.204911,11.527978 0.846858,2.454444 1.928474,3.824986 3.2675,4.827096 -3.678069,6.595328 -3.563046,12.596468 -4.171838,15.316378 -1.365174,6.09922 -2.543734,8.3844 -3.3734375,10.93266 -0.2026557,0.62243 -1.299033,2.09676 -1.3838949,2.69183 -0.090348,0.63355 0.3591192,1.41147 0.4118612,2.00711 0.052742,0.59563 -0.04283,1.28991 0.6392377,2.13424 1.5238605,1.88639 4.4402315,3.40205 5.6611535,4.11086 0.894653,0.51938 1.547709,-0.0646 1.547709,-0.0646 l 0.01912,-0.0295 c 0.939101,0.41068 2.085815,0.60959 3.572908,0.29404 4.583503,-0.97259 5.722959,-7.1425 6.430615,-8.14007 0.316565,-0.44626 1.592434,-1.27514 3.447335,-2.85926 0.801899,1.34191 1.723282,2.73876 2.728516,4.16202 -0.886283,1.09641 -1.285992,2.66884 -1.323433,4.11913 -0.104791,4.05909 0.567449,14.481 2.542998,18.70945 0.863817,1.84891 2.394593,3.07484 4.220929,3.87315 0.475123,3.92322 2.082576,8.13982 4.671034,12.80955 1.000138,1.80431 2.538616,2.68379 4.009057,2.80603 3.554264,0.29548 7.603685,0.54058 9.354468,-0.53433 1.180658,1.85964 2.60723,3.66304 4.610055,4.87774 0,0 1.566592,0.13845 1.992643,-0.0863 0.52692,-0.27794 0.681096,-1.89549 0.681096,-1.89549 l 0.239778,-10.54406 c 0,0 0.06179,-0.80684 -0.870233,-0.89401 l -5.777942,-0.80924 -0.784447,-0.73794 c -1.69713,-0.15163 -3.92113,-0.1176 -6.053894,1.02164 -0.453512,-1.40431 -1.031269,-2.89157 -1.872753,-4.41626 2.960119,0.45937 6.257902,1.36957 6.763412,0.33796 0.863544,1.47299 2.381737,2.13267 3.479374,2.33164 0.436237,0.0791 1.36679,-0.58384 1.567863,-0.73381 0.240773,-0.17957 0.177249,-0.67024 0.177249,-0.67024 l -0.332795,-2.17299 -0.111623,-3.6065 c 0.0062,-0.39138 -0.09892,-0.62925 -0.389123,-0.80408 -0.513942,-0.30964 -1.45647,-0.8787 -2.768306,-0.72244 -1.230127,-1.31283 -2.248934,-1.20941 -3.629752,-1.79782 0.617897,-0.26051 1.26588,-0.59338 1.925462,-0.98444 a 29.132379,19.777945 0 0 0 16.855819,3.66437 29.132379,19.777945 0 0 0 16.19591,-3.35638 c 2.578495,4.26514 5.995509,7.83875 8.965346,10.1999 3.782639,3.00734 10.188009,3.69611 11.016899,5.40897 0.82888,1.71286 -1.02938,7.50473 -0.50023,10.2216 -1.28742,0.95311 -4.05356,6.5887 -0.52761,6.22081 l 10.59935,-4.28036 c 0.79526,-1.61988 0.0225,-3.15466 -0.005,-4.80746 -0.0285,-1.71567 1.57554,-6.44099 1.46141,-9.86658 -0.13275,-3.984 -3.09874,-6.4101 -3.39049,-8.83874 -0.13346,-1.11094 -0.0987,-3.20205 -0.0352,-5.93556 0.1441,-0.008 0.2847,-0.0181 0.42634,-0.0279 1.41865,2.80464 2.75145,5.19889 3.88916,6.63681 1.78048,2.25029 11.32072,9.87788 12.14242,14.22135 0.8881,4.69451 -1.04952,6.93533 -2.4567,10.58334 l 0.047,1.18081 c -1.58119,0.85556 -6.94181,6.14081 -3.87418,6.42545 l 9.35498,1.03973 c 1.15391,0 2.86504,-0.86198 2.92954,-1.84278 l -0.24133,-1.94046 c 0.69631,-0.76472 0.61889,-2.54396 0.50281,-3.61166 0.83191,-2.86284 4.56731,-8.80721 4.65191,-13.11032 0.0964,-4.90149 -7.18381,-11.82829 -6.61458,-20.31607 0.67709,-10.09606 5.69779,-15.59747 1.98437,-29.48244 -1.75388,-6.55801 -7.50936,-16.30833 -19.4045,-18.426782 -4.1114,-0.732197 -15.5391,-1.156279 -19.243356,-2.760551 -2.787734,-1.207336 -8.371398,-7.554228 -19.39985,-11.098546 -3.569819,-1.147268 -7.716018,-1.295435 -11.159009,-1.520839 0.651436,-0.538289 1.282295,-1.095076 1.882572,-1.674834 -3.87603,-0.224173 -9.772182,-1.71917 -14.044621,-3.500043 1.289577,-0.797957 2.563358,-1.637429 3.816821,-2.529046 -6.174491,-0.403074 -14.890869,-0.159065 -21.288621,1.256255 -0.327284,0.138316 -0.643549,0.278508 -0.955498,0.419097 -0.686678,-0.610804 -1.408088,-1.122444 -2.072224,-1.459344 -1.463318,-0.742299 -3.131982,-1.168386 -4.71134,-1.149283 z"
     id="path4503"
     inkscape:connector-curvature="0" />
  <path
     style="display:inline;opacity:1;fill:#000000;fill-opacity:1;stroke:none;stroke-width:1;stroke-linecap:butt;stroke-linejoin:miter;stroke-miterlimit:4;stroke-dasharray:none;stroke-opacity:1"
     d="m 187.00372,107.68117 c -0.17015,2.81754 -0.9204,2.23163 -0.47484,4.01026 2.13114,-0.87817 4.62368,-3.05893 6.09723,-4.81346 0.64195,1.87071 -0.22265,1.885 0.85045,4.34673 2.14005,-0.91892 3.02464,-0.0396 8.22099,-3.21279 -0.32599,2.56416 -3.05965,8.07086 -8.26586,9.43556 0.95258,0.13935 1.02409,0.79924 3.96637,0.53356 -2.3682,1.77195 -4.15395,2.56982 -8.17373,1.98437 1.197,0.33557 0.79186,0.74761 2.50409,0.75595 -8.64503,5.06009 -19.63132,-2.56375 -13.09831,-6.55703 5.70258,-3.48568 3.91753,-3.63478 8.37361,-6.48315 z"
     id="path4526"
     inkscape:connector-curvature="0"
     sodipodi:nodetypes="cccccccccsc" />
  <path
     style="display:inline;opacity:1;fill:#000000;fill-opacity:1;stroke:none;stroke-width:1;stroke-linecap:butt;stroke-linejoin:miter;stroke-miterlimit:4;stroke-dasharray:none;stroke-opacity:1"
     d="m 189.08595,141.10439 c -1.15773,-0.86345 -0.63005,-1.11607 -1.37353,-1.97054 2.80312,2.60186 6.43727,1.91613 8.94689,0.53593 -0.77696,0.0429 -1.08373,-0.0497 -1.49807,-0.64426 3.23245,-0.64833 6.28549,-4.55903 7.03407,-5.95075 -3.65833,0.81768 -7.51464,0.26011 -8.59896,0.90105 -0.47385,-1.05641 0.28544,-2.31386 0.97835,-3.11019 -2.78122,0.0536 -5.11343,1.72551 -5.93691,2.60096 -0.59403,-2.01831 0.33573,-1.69801 0.39755,-3.24859 -2.72823,2.03853 -3.02562,0.85038 -5.70011,3.17922 -5.22127,4.54649 2.53057,8.13496 5.75072,7.70717 z"
     id="path4528"
     inkscape:connector-curvature="0"
     sodipodi:nodetypes="cccccccccsc" />
  <path
     style="display:inline;opacity:1;fill:#000000;fill-opacity:1;stroke:none;stroke-width:1;stroke-linecap:butt;stroke-linejoin:miter;stroke-miterlimit:4;stroke-dasharray:none;stroke-opacity:1"
     d="m 176.09721,144.82341 c 0.17085,-2.69079 2.93795,-3.82205 4.81085,-6.34765 0.15783,1.07296 -0.36257,1.75137 0.0668,3.0736 2.20557,-2.10682 4.95527,-3.23176 7.91786,-3.77518 -1.42857,2.48979 -2.7905,2.721 -3.4411,4.44335 2.36326,-0.70412 3.31556,0.81985 9.65512,-1.23612 -0.90735,2.37595 -4.71926,5.13821 -8.95354,5.51243 0.3793,1.05182 1.43658,1.32707 1.70385,2.30521 -1.62632,-0.99542 -2.06939,-0.68207 -3.50792,-0.80181 0.97281,0.30749 1.15436,0.5458 1.67044,1.03567 -5.60404,0.13831 -10.08373,-1.66851 -9.92238,-4.2095 z"
     id="path4530"
     inkscape:connector-curvature="0"
     sodipodi:nodetypes="scccccccccs" />
  <path
     style="display:inline;opacity:1;fill:none;stroke:#000000;stroke-width:1;stroke-linecap:butt;stroke-linejoin:miter;stroke-miterlimit:4;stroke-dasharray:none;stroke-opacity:1"
     d="m 123.39074,103.46444 c 13.19673,-7.832108 22.45534,10.42542 27.99452,21.06172 10.22374,19.63158 19.61865,22.45621 29.03116,20.24763"
     id="path4532"
     inkscape:connector-curvature="0"
     sodipodi:nodetypes="csc" />
  <path
     style="display:inline;opacity:1;fill:none;stroke:#000000;stroke-width:1;stroke-linecap:butt;stroke-linejoin:miter;stroke-miterlimit:4;stroke-dasharray:none;stroke-opacity:1"
     d="m 184.64137,136.92708 c -14.52513,0.046 -23.59446,-8.48782 -31.37203,-16.72545 -6.35446,-6.73034 -16.79488,-21.710427 -29.8786,-16.73719"
     id="path4536"
     inkscape:connector-curvature="0"
     sodipodi:nodetypes="csc" />
  <path
     style="display:inline;opacity:1;fill:none;stroke:#000000;stroke-width:1;stroke-linecap:butt;stroke-linejoin:miter;stroke-miterlimit:4;stroke-dasharray:none;stroke-opacity:1"
     d="m 181.05059,115.66592 c -8.38986,4.7042 -18.6386,8.37943 -29.95461,4.06324 -12.95077,-4.93973 -15.18694,-19.948603 -27.70524,-16.26472"
     id="path4538"
     inkscape:connector-curvature="0"
     sodipodi:nodetypes="csc" />
  <path
     style="display:inline;fill:none;stroke:#000200;stroke-width:0.75;stroke-linecap:round;stroke-linejoin:round;stroke-miterlimit:4;stroke-dasharray:none;stroke-opacity:1"
     d="m 141.88281,180.44159 14.88281,-0.37797"
     id="path4511"
     inkscape:connector-curvature="0"
     sodipodi:nodetypes="cc" />
  <path
     style="display:inline;fill:none;stroke:#000200;stroke-width:0.75;stroke-linecap:round;stroke-linejoin:round;stroke-miterlimit:4;stroke-dasharray:none;stroke-opacity:1"
     d="m 141.12686,183.84337 17.95387,-0.14174"
     id="path4513"
     inkscape:connector-curvature="0"
     sodipodi:nodetypes="cc" />
  <path
     style="display:inline;fill:none;stroke:#000200;stroke-width:0.75;stroke-linecap:round;stroke-linejoin:round;stroke-miterlimit:4;stroke-dasharray:none;stroke-opacity:1"
     d="m 158.37202,175.48065 c 0.2315,-1.52071 3.47394,-2.788 5.38616,-0.94494 1.23675,1.19202 0.45717,2.90975 -0.56696,4.01599 1.57625,-0.71942 5.12277,0.99787 4.7247,3.44904 -0.34518,2.12546 -3.20222,2.40767 -5.57515,1.70089"
     id="path4515"
     inkscape:connector-curvature="0"
     sodipodi:nodetypes="cscsc" />
  <path
     style="display:inline;fill:none;stroke:#000200;stroke-width:0.75;stroke-linecap:round;stroke-linejoin:round;stroke-miterlimit:4;stroke-dasharray:none;stroke-opacity:1"
     d="m 155.20647,168.15736 c -0.52069,-3.14329 1.8163,-6.54044 4.96094,-6.47284 2.2159,0.0476 3.24016,3.25755 3.02381,6.09487 2.10221,-4.33546 4.82162,-4.52221 7.70126,-2.69308 4.13094,2.62394 1.74311,4.81006 0.8977,5.90588 2.91676,-1.00731 7.53828,2.20053 8.12648,5.24442 0.90346,4.6753 -2.00973,7.26936 -5.85863,7.65401"
     id="path4517"
     inkscape:connector-curvature="0"
     sodipodi:nodetypes="cscscsc" />
</svg>
